# xmcd
# 
# Track frame offsets:
#     187
#     56850
#     72777
#     98227
#     114002
#     128040
#     140752
#     157777
#     170177
#     196312
#     210252
#     224690
#     240945
#     267502
#     283412
# 
# Disc length: 4604
# 
# Revision: 3
# Processed by: cddbd v1.5.2PL0 Copyright (c) Steve Scherf et al.
# Submitted via: BonkEnc v1.0.8
# 
DISCID=e411fa0f
DTITLE=The J.B.'s - Funky Good Time: The Anthology [CD1]
DYEAR=1995
DGENRE=Funk
TTITLE0=[Fred Wesley and The J.B.'s] Introduction To The J.B.'s - Doing It To Death
TTITLE1=[The J.B.'s] The Grunt (Parts 1&2)
TTITLE2=[The J.B.'s] My Brother (Parts 1&2)
TTITLE3=[The J.B.'s] Pass The Peas
TTITLE4=[The J.B.'s] Gimme Some More
TTITLE5=[The J.B.'s] J.B. Shout
TTITLE6=[The J.B.'s] Blessed Blackness
TTITLE7=[The J.B.'s] Hot Pants Road
TTITLE8=[The J.B.'s] Givin' Up Food For Funk (Parts 1&2)
TTITLE9=[The James Brown Soul Train] Honky Tonk (Part 1)
TTITLE10=[Fred Wesley and The J.B.'s] Dirty Harri
TTITLE11=[Fred Wesley and The J.B.'s] Watermelon Man
TTITLE12=[Maceo and The Macks] Parrty (Parts 1&2)
TTITLE13=[Fred Wesley and The J.B.'s] You Can Have Watergate Just GimmeSome Bucks And I'll Be Straight
TTITLE14=[Fred Wesley and The J.B.'s] More Peas
EXTD=
EXTT0=
EXTT1=
EXTT2=
EXTT3=
EXTT4=
EXTT5=
EXTT6=
EXTT7=
EXTT8=
EXTT9=
EXTT10=
EXTT11=
EXTT12=
EXTT13=
EXTT14=
PLAYORDER=
